<svg xmlns="http://www.w3.org/2000/svg" viewBox="0 0 500 600" width="500" height="600">
  <g fill="#ffffff">
    <!-- Arrow pointing up -->
    <polygon points="230,10 310,110 270,110 270,170 190,170 190,110 150,110"/>
    
    <!-- Vertical stem of F -->
    <path d="M190,150 L270,150 L270,200 L240,200 L240,350 
      Q235,390 200,420 Q165,445 110,460 Q75,468 40,462
      Q80,445 115,420 Q150,395 175,355 Q190,330 195,300 L190,300 Z"/>
    
    <!-- Top wing swoosh -->
    <path d="M265,165 Q310,148 360,158 Q405,172 440,210
      Q400,192 365,186 Q325,182 290,195 Q265,206 255,225 L250,210 Z"/>
    
    <!-- Middle wing swoosh -->
    <path d="M248,230 Q295,210 345,218 Q395,232 435,270
      Q395,252 358,246 Q320,242 285,255 Q260,266 248,285 L243,270 Z"/>

    <!-- Bottom wing swoosh -->
    <path d="M225,295 Q270,278 315,286 Q360,298 395,330
      Q360,315 328,310 Q295,306 265,318 Q245,328 235,348 L230,330 Z"/>
  </g>
</svg>
